<svg xmlns="http://www.w3.org/2000/svg" id="Livello_2" viewBox="0 0 370.9 370.9">
  <defs>
    <style>
      .cls-1{fill:#fff}.cls-2{fill:#de2341}
    </style>
  </defs>
  <g id="Livello_1-2">
    <circle cx="185.5" cy="185.5" r="179.9" class="cls-2" transform="rotate(-45 185.5 185.5)"/>
    <path d="M185.5 11c46.6 0 90.4 18.2 123.3 51.1 33 33 51 76.8 51 123.4s-18 90.3-51 123.3-76.7 51-123.3 51-90.4-18-123.4-51-51-76.8-51-123.3S29 95 62 62s76.8-51 123.4-51m0-11.1a185.5 185.5 0 1 0 0 371 185.5 185.5 0 0 0 0-371Z"/>
    <path d="M183.3 45.4a189 189 0 0 1 122 42.6c10.9 8.7 21.6 17.4 34.2 23.7a47.8 47.8 0 0 1 24.6 30.4c4 13.3-1.4 20.7-15.3 20.8a92 92 0 0 1-38.3-10.7c-4.9-2.2-11.6-6-12.4 3.7-.8 10.5-7.3 10.8-15.1 10.7l-200.7-2.8c-6.7 0-13.4.2-15.7-8.8-2.1-8.1-7.8-3.8-12-2a81.1 81.1 0 0 1-32.3 7.7c-15 0-20.3-7.8-14.4-21.6a43.6 43.6 0 0 1 22.3-24c13.4-6 24.9-14.4 35.6-24.4 33-30.8 72.5-44.8 117.5-45.3Zm0 15.9c-24.9 1.5-49.7 4-73.1 14.7-30.7 14-52.8 41-83.9 54.4-1.8.7-3 3.1-4.2 5-1.7 2.8-3.8 5.8-1.7 9.3 2 3.4 5.6 3.3 8.9 2.8a59.8 59.8 0 0 0 26.6-9.3c27.4-19.6 58.3-29.2 91.4-34.4 53.3-8.4 103.5.3 150.3 26.1 12.6 7 24.4 14.5 38.7 17.4 4.1.8 9.2 3.4 12-1.6 2.6-4.4-.1-8.6-2.7-12.3a28.2 28.2 0 0 0-13-10 116.8 116.8 0 0 1-31-19.6c-34-29.2-72.9-44.8-118.3-42.5Z"/>
    <path d="M181.7 59.5A171.5 171.5 0 0 1 303 103.3c9.4 8 18.3 15.3 29.6 20 5.4 2.3 9.7 5.4 13 10 2.6 3.8 5.3 8 2.8 12.4-3 5-8 2.5-12.1 1.6-14.3-2.8-26.1-10.4-38.7-17.4a228.8 228.8 0 0 0-150.3-26c-33.1 5.1-64 14.7-91.4 34.3a60 60 0 0 1-26.6 9.3c-3.3.5-6.9.6-9-2.8-2-3.5 0-6.5 1.8-9.3 1.1-1.8 2.4-4.2 4.2-5C57.4 117 79.5 90 110.2 76a196 196 0 0 1 71.5-16.5Z" class="cls-2"/>
    <rect width="176.1" height="23.2" x="97.4" y="189.5" class="cls-1" rx="5" ry="5"/>
    <path d="M268.6 226.9H102.3a4.9 4.9 0 0 0-5 4.9v13.4a5 5 0 0 0 5 4.9h66.6a5 5 0 0 1 5 4.8V310a5 5 0 0 0 4.8 5h13.4a5 5 0 0 0 5-5v-55c0-2.8 2.1-5 4.8-5h66.7c2.7 0 4.9-2.1 4.9-4.8v-13.4a5 5 0 0 0-5-5Z" class="cls-1"/>
    <path fill="#33c6f4" d="M62.1 62.1c33-33 76.8-51 123.4-51s90.4 18 123.3 51A174.3 174.3 0 0 1 345 115a45.8 45.8 0 0 0-5.6-3.3c-12.6-6.3-23.3-15-34.3-23.7a188.5 188.5 0 0 0-122-42.6A168 168 0 0 0 65.7 90.7 128.5 128.5 0 0 1 30.2 115c-2 .9-4 2-5.7 3.1a174.2 174.2 0 0 1 37.7-56Z"/>
  </g>
</svg>
