<svg xmlns="http://www.w3.org/2000/svg" xmlns:xlink="http://www.w3.org/1999/xlink" xml:space="preserve"
    viewBox="0 0 256 256">
    <defs>
        <circle id="a" cx="128" cy="128" r="124.2" />
    </defs>
    <clipPath id="b">
        <use xlink:href="#a" overflow="visible" />
    </clipPath>
    <circle cx="128" cy="128" r="124.2" fill="#33c6f4" clip-path="url(#b)" />
    <path fill="#221e1f"
        d="M128 256C57.4 256 0 198.6 0 128S57.4 0 128 0s128 57.4 128 128-57.4 128-128 128zm0-248.3C61.6 7.7 7.7 61.6 7.7 128s54 120.3 120.3 120.3c66.4 0 120.3-54 120.3-120.3S194.4 7.7 128 7.7z" />
    <g stroke="#221e1f" stroke-miterlimit="10">
        <path fill="#a32222" stroke-width="9.06" d="M229.8 138.7c0-31.4-45.6-53.1-101.8-53.1S26.2 107.3 26.2 138.7" />
        <ellipse cx="128" cy="138.7" fill="#fff" stroke-width="9.06" rx="101.8" ry="25.4" />
        <path fill="none" stroke-width="7.68" d="M101.6 112.1s13.4 29.8 26.6 29.8c15.1 0 26.6-29.8 26.6-29.8" />
        <path fill="none" stroke-width="9.74" d="M128.2 144.1v108.5" />
        <path fill="none" stroke-width="4.26" d="M39.7 151.3C32.2 110.8 128 85.6 128 85.6s-77.6 31.6-64.9 74.3" />
        <path fill="none" stroke-width="4.26"
            d="M85.5 163s-12-30.2 42.5-77.5m88.6 65.8c7.5-40.5-88.3-65.7-88.3-65.7s77.6 31.6 64.9 74.3" />
        <path fill="none" stroke-width="4.26" d="M170.8 163s12-30.2-42.5-77.5" />
    </g>
</svg>